<svg xmlns="http://www.w3.org/2000/svg" width="684.848" height="588.313" viewBox="0 0 684.848 588.313">
  <path id="Path_1" data-name="Path 1" d="M601.044,583.437s4.857,45.084,14.572,54.981C614.4,639.518,639.9,691.2,639.9,691.2s-33.395-23.367-49.789-52.782-24.287-61.579-15.787-64.877c-2.015-.608,4.157-7.432,8.1-12.655a50.987,50.987,0,0,1,7.683-8.238l185.8,51.682s-93.506-162.743-88.648-169.341c-1.214,0,0-47.284,58.289-40.686,1.214,0,66.79,15.395,127.508,59.379-.6-1.082,131.151,90.169,131.151,90.169s133.443,114.743,142.08,125.356c1.214,3.3-65.575-145.15-131.151-204.529,1.214,0-225.871-254.012-225.871-254.012S1049.142,391,1073.429,434.989c3.643,2.2,168.8,194.632,178.511,273.805,0,1.1,8.5,59.379,0,69.276,3.643-2.2-21.859,32.989-58.289,16.494-10.929-5.5-363.093-283.7-363.093-283.7l-41.288-28.59s26.743,44.27,63.147,101.165c14.6,22.816,37.289,44.666,54.646,69.276,5.827,8.262,4.312,20.7,10.929,28.59,3.643,3.3-1.214,52.782-53.432,27.491,0,0-52.279-31.712-95.935-56.081-18.076-10.09-38.6-22.766-46.146-23.092,2.429,1.1-98.363-39.586-98.363-39.586Z" transform="translate(-570.87 -210.667)" fill="#05f"/>
</svg>
